<svg width="1920" height="1080" viewBox="0 0 1920 1080" fill="none" xmlns="http://www.w3.org/2000/svg">
<rect width="1920" height="1080" fill="white"/>
<path d="M80.9749 58.5229C79.608 57.156 77.392 57.156 76.0251 58.5229L53.7513 80.7967C52.3844 82.1636 52.3844 84.3796 53.7513 85.7465C55.1181 87.1133 57.3342 87.1133 58.701 85.7465L78.5 65.9475L98.299 85.7465C99.6658 87.1133 101.882 87.1133 103.249 85.7465C104.616 84.3796 104.616 82.1636 103.249 80.7967L80.9749 58.5229ZM82 1013L82 60.9977H75L75 1013H82Z" fill="black"/>
<path d="M1879.47 1015.47C1880.84 1014.11 1880.84 1011.89 1879.47 1010.53L1857.2 988.251C1855.83 986.884 1853.62 986.884 1852.25 988.251C1850.88 989.618 1850.88 991.834 1852.25 993.201L1872.05 1013L1852.25 1032.8C1850.88 1034.17 1850.88 1036.38 1852.25 1037.75C1853.62 1039.12 1855.83 1039.12 1857.2 1037.75L1879.47 1015.47ZM1877 1009.5L80.0001 1009.5L80.0001 1016.5L1877 1016.5L1877 1009.5Z" fill="black"/>
<path d="M513.125 222.5C513.125 217.325 517.325 213.125 522.5 213.125C527.675 213.125 531.875 217.325 531.875 222.5C531.875 227.675 527.675 231.875 522.5 231.875C517.325 231.875 513.125 227.675 513.125 222.5ZM575 215V290H425V215C425 173.75 458.75 140 500 140C541.25 140 575 173.75 575 215ZM440 215C440 248.075 466.925 275 500 275C533.075 275 560 248.075 560 215C560 209.075 559.1 203.375 557.525 198.05C552.125 199.325 546.5 200 540.65 200C515.375 200 493.025 187.475 479.45 168.275C472.1 186.2 458.075 200.675 440.375 208.55C440 210.65 440 212.825 440 215ZM477.5 231.875C482.675 231.875 486.875 227.675 486.875 222.5C486.875 217.325 482.675 213.125 477.5 213.125C472.325 213.125 468.125 217.325 468.125 222.5C468.125 227.675 472.325 231.875 477.5 231.875Z" fill="black"/>
<path d="M287.833 210.458C285.347 210.458 282.962 211.446 281.204 213.204C279.446 214.962 278.458 217.347 278.458 219.833C278.458 222.32 279.446 224.704 281.204 226.462C282.962 228.221 285.347 229.208 287.833 229.208C289.064 229.208 290.284 228.966 291.421 228.495C292.558 228.024 293.592 227.333 294.462 226.462C295.333 225.592 296.024 224.558 296.495 223.421C296.966 222.284 297.208 221.064 297.208 219.833C297.208 218.602 296.966 217.383 296.495 216.246C296.024 215.108 295.333 214.075 294.462 213.204C293.592 212.334 292.558 211.643 291.421 211.172C290.284 210.701 289.064 210.458 287.833 210.458ZM332.833 210.458C330.347 210.458 327.962 211.446 326.204 213.204C324.446 214.962 323.458 217.347 323.458 219.833C323.458 222.32 324.446 224.704 326.204 226.462C327.962 228.221 330.347 229.208 332.833 229.208C335.32 229.208 337.704 228.221 339.462 226.462C341.221 224.704 342.208 222.32 342.208 219.833C342.208 217.347 341.221 214.962 339.462 213.204C337.704 211.446 335.32 210.458 332.833 210.458ZM310.333 137.333C300.484 137.333 290.731 139.273 281.632 143.042C272.533 146.811 264.265 152.336 257.3 159.3C243.235 173.366 235.333 192.442 235.333 212.333C235.333 232.225 243.235 251.301 257.3 265.366C264.265 272.331 272.533 277.855 281.632 281.624C290.731 285.393 300.484 287.333 310.333 287.333C330.225 287.333 349.301 279.432 363.366 265.366C377.432 251.301 385.333 232.225 385.333 212.333C385.333 202.484 383.393 192.732 379.624 183.632C375.855 174.533 370.331 166.265 363.366 159.3C356.402 152.336 348.134 146.811 339.035 143.042C329.935 139.273 320.182 137.333 310.333 137.333ZM310.333 272.333C277.258 272.333 250.333 245.408 250.333 212.333C250.333 210.158 250.333 207.983 250.708 205.883C268.408 198.008 282.433 183.533 289.783 165.608C303.358 184.808 325.708 197.333 350.983 197.333C356.833 197.333 362.458 196.658 367.858 195.383C369.433 200.708 370.333 206.408 370.333 212.333C370.333 245.408 343.408 272.333 310.333 272.333Z" fill="black"/>
<path d="M425 856H575V878.5H560L567.5 946H548.75L544.55 908.5H455.45L451.25 946H432.5L440 878.5H425V856ZM541.25 878.5H458.75L457.175 893.5H542.825L541.25 878.5Z" fill="black"/>
<path d="M1604.91 148C1593.25 148 1586.16 150.25 1582.07 152.159C1576.82 149.568 1570.82 148 1564 148C1557.18 148 1551.18 149.568 1545.93 152.159C1541.84 150.25 1534.75 148 1523.09 148C1502.64 148 1489 202.545 1489 216.182C1489 221.841 1498 227.023 1510.41 229.136C1514.77 244.409 1535.36 256.068 1560.59 257.091V227.909C1556.57 225.386 1550.36 220.818 1550.36 216.182C1550.36 209.364 1564 209.364 1564 209.364C1564 209.364 1577.64 209.364 1577.64 216.182C1577.64 220.818 1571.43 225.386 1567.41 227.909V257.091C1592.64 256.068 1613.23 244.409 1617.59 229.136C1630 227.023 1639 221.841 1639 216.182C1639 202.545 1625.36 148 1604.91 148ZM1510.48 215.295C1507.07 214.477 1504.41 213.523 1502.64 212.773C1504.34 193.886 1517.64 164.364 1523.43 161.636C1527.11 161.636 1529.91 162.045 1532.43 162.386C1518.11 178.136 1512.45 202.818 1510.48 215.295ZM1543.55 202.545C1541.74 202.545 1540 201.827 1538.72 200.548C1537.45 199.27 1536.73 197.536 1536.73 195.727C1536.73 192.045 1539.8 188.909 1543.55 188.909C1545.35 188.909 1547.09 189.627 1548.37 190.906C1549.65 192.185 1550.36 193.919 1550.36 195.727C1550.36 199.545 1547.3 202.545 1543.55 202.545ZM1584.45 202.545C1582.65 202.545 1580.91 201.827 1579.63 200.548C1578.35 199.27 1577.64 197.536 1577.64 195.727C1577.64 192.045 1580.7 188.909 1584.45 188.909C1586.26 188.909 1588 189.627 1589.28 190.906C1590.55 192.185 1591.27 193.919 1591.27 195.727C1591.27 199.545 1588.2 202.545 1584.45 202.545ZM1617.52 215.295C1615.55 202.818 1609.89 178.136 1595.57 162.386C1598.09 162.045 1600.89 161.636 1604.57 161.636C1610.36 164.364 1623.66 193.886 1625.36 212.773C1623.66 213.523 1621 214.477 1617.52 215.295Z" fill="black"/>
<path d="M362.5 870.5V855.5C362.5 843.125 352.375 833 340 833H280C267.625 833 257.5 843.125 257.5 855.5V870.5C245.125 870.5 235 880.625 235 893V930.5C235 942.875 245.125 953 257.5 953V968H272.5V953H347.5V968H362.5V953C374.875 953 385 942.875 385 930.5V893C385 880.625 374.875 870.5 362.5 870.5ZM272.5 855.5C272.5 851.375 275.875 848 280 848H340C344.125 848 347.5 851.375 347.5 855.5V876.35C342.925 880.475 340 886.4 340 893V908H280V893C280 886.4 277.075 880.475 272.5 876.35V855.5ZM370 930.5C370 934.625 366.625 938 362.5 938H257.5C253.375 938 250 934.625 250 930.5V893C250 888.875 253.375 885.5 257.5 885.5C261.625 885.5 265 888.875 265 893V923H355V893C355 888.875 358.375 885.5 362.5 885.5C366.625 885.5 370 888.875 370 893V930.5Z" fill="black"/>
<path d="M1752 166.435L1741.95 167.115C1735.46 159.411 1717.26 140 1699.13 140C1699.13 140 1684.25 162.356 1698.83 192.19C1694.67 198.459 1692.11 201.707 1691.58 209.184L1677 211.375L1678.59 218.776L1691.88 216.813L1692.94 222.175L1681.08 229.275L1684.63 235.997L1695.58 229.275C1704.27 247.704 1726.24 257.069 1752 257.069C1777.76 257.069 1799.73 247.704 1808.42 229.275L1819.37 235.997L1822.92 229.275L1811.06 222.175L1812.12 216.813L1825.41 218.776L1827 211.375L1812.42 209.184C1811.89 201.707 1809.33 198.459 1805.17 192.19C1819.75 162.356 1804.87 140 1804.87 140C1786.74 140 1768.54 159.411 1762.05 167.115L1752 166.435ZM1729.34 189.094C1731.34 189.094 1733.27 189.889 1734.68 191.306C1736.1 192.722 1736.89 194.643 1736.89 196.647C1736.89 198.65 1736.1 200.571 1734.68 201.987C1733.27 203.404 1731.34 204.199 1729.34 204.199C1727.34 204.199 1725.42 203.404 1724 201.987C1722.58 200.571 1721.79 198.65 1721.79 196.647C1721.79 194.643 1722.58 192.722 1724 191.306C1725.42 189.889 1727.34 189.094 1729.34 189.094ZM1774.66 189.094C1776.66 189.094 1778.58 189.889 1780 191.306C1781.42 192.722 1782.21 194.643 1782.21 196.647C1782.21 198.65 1781.42 200.571 1780 201.987C1778.58 203.404 1776.66 204.199 1774.66 204.199C1772.66 204.199 1770.73 203.404 1769.32 201.987C1767.9 200.571 1767.11 198.65 1767.11 196.647C1767.11 194.643 1767.9 192.722 1769.32 191.306C1770.73 189.889 1772.66 189.094 1774.66 189.094ZM1744.45 211.752H1759.55L1754.27 222.251C1755.78 227.085 1760.01 230.634 1765.22 230.634C1768.22 230.634 1771.1 229.441 1773.23 227.316C1775.35 225.192 1776.55 222.31 1776.55 219.305H1780.32C1780.32 223.311 1778.73 227.154 1775.9 229.987C1773.07 232.819 1769.22 234.411 1765.22 234.411C1759.55 234.411 1754.64 231.314 1752 226.858C1749.36 231.314 1744.45 234.411 1738.78 234.411C1734.78 234.411 1730.93 232.819 1728.1 229.987C1725.27 227.154 1723.68 223.311 1723.68 219.305H1727.45C1727.45 222.31 1728.65 225.192 1730.77 227.316C1732.9 229.441 1735.78 230.634 1738.78 230.634C1743.99 230.634 1748.22 227.085 1749.73 222.251L1744.45 211.752Z" fill="black"/>
</svg>
